HIERARCHY
ROOT ui
{
	 OFFSET 0 0 0
	 CHANNELS 3 XPosition YPosition Z Position
	 EndSite
	 {
	 OFFSET 0 -1 0
	 }
}
ROOT li
{
	 OFFSET 0 0 0
	 CHANNELS 3 XPosition YPosition Z Position
	 EndSite
	 {
	 OFFSET 0 -1 0
	 }
}
ROOT ul
{
	 OFFSET 0 0 0
	 CHANNELS 3 XPosition YPosition Z Position
	 EndSite
	 {
	 OFFSET 0 -1 0
	 }
}
ROOT ll
{
	 OFFSET 0 0 0
	 CHANNELS 3 XPosition YPosition Z Position
	 EndSite
	 {
	 OFFSET 0 -1 0
	 }
}
ROOT tt
{
	 OFFSET 0 0 0
	 CHANNELS 3 XPosition YPosition Z Position
	 EndSite
	 {
	 OFFSET 0 -1 0
	 }
}
ROOT tb
{
	 OFFSET 0 0 0
	 CHANNELS 3 XPosition YPosition Z Position
	 EndSite
	 {
	 OFFSET 0 -1 0
	 }
}
ROOT td
{
	 OFFSET 0 0 0
	 CHANNELS 3 XPosition YPosition Z Position
	 EndSite
	 {
	 OFFSET 0 -1 0
	 }
}
ROOT v
{
	 OFFSET 0 0 0
	 CHANNELS 3 XPosition YPosition Z Position
	 EndSite
	 {
	 OFFSET 0 -1 0
	 }
}
ROOT bn
{
	 OFFSET 0 0 0
	 CHANNELS 3 XPosition YPosition Z Position
	 EndSite
	 {
	 OFFSET 0 -1 0
	 }
}
MOTION
Frames: 21
Frame Time: 0.002
-0.00724943208694458	2.0416999235749244E-5	0		0.4936042785644531	-2.358786865234375	0		-1.08045458984375	-8.540760278701782E-4	0		-0.7465961303710937	-2.30452001953125	0		1.5306153564453124	-0.39488839721679686	0		3.02337451171875	0.05819779586791992	0		4.50980810546875	0.2273526611328125	0		5.61781982421875	0.1387805938720703	0		-0.2960249938964844	5.8804697265625	0		
0.06377227783203125	-0.0035851290225982664	0		0.4943919982910156	-2.354944580078125	0		-1.0715882568359374	-0.012604872703552246	0		-0.7827984008789063	-2.299332275390625	0		1.5119632568359376	-0.385413330078125	0		3.048646728515625	0.07026612854003907	0		4.51066845703125	0.2202731475830078	0		5.61918212890625	0.12179251098632812	0		-0.2873741455078125	5.88991064453125	0		
0.020058267593383788	0.007941781997680664	0		0.49312472534179685	-2.353068115234375	0		-1.0673807373046875	-0.006249998092651367	0		-0.7511767578125	-2.3033916015625	0		1.572095458984375	-0.3883984375	0		3.029708740234375	0.07112353515625	0		4.50494384765625	0.23527546691894533	0		5.6110751953125	0.17261514282226562	0		-0.2928433837890625	5.8896181640625	0		
0.06211930465698242	0.0029082579612731935	0		0.48782177734375	-2.355120849609375	0		-1.0881082763671874	5.737890005111695E-4	0		-0.7914326171875	-2.302128173828125	0		1.525360107421875	-0.3864443359375	0		3.040830810546875	0.07140140533447266	0		4.512025390625	0.23599531555175782	0		5.6166767578125	0.1431346893310547	0		-0.4305526123046875	5.86970703125	0		
0.008398807525634766	0.004602672100067139	0		0.474796875	-2.34603564453125	0		-1.0959063720703126	-0.0028199059963226318	0		-0.73085400390625	-2.315655517578125	0		1.557541259765625	-0.395925537109375	0		3.03103369140625	0.07002366638183594	0		4.49411962890625	0.2311094512939453	0		5.60987939453125	0.16252952575683594	0		-0.3174978942871094	5.87930419921875	0		
0.048656475067138674	-0.004363892078399659	0		0.4795318298339844	-2.357267578125	0		-1.099500244140625	-0.00326373291015625	0		-0.8079031372070312	-2.31372265625	0		1.506182373046875	-0.38693841552734376	0		3.01258349609375	0.07976156616210937	0		4.4904736328125	0.2319124755859375	0		5.60021923828125	0.16634629821777344	0		-0.3224037780761719	5.87903369140625	0		
-0.0016621509790420532	0.001267096996307373	0		0.4766087951660156	-2.357359130859375	0		-1.0901048583984374	-0.014906936645507813	0		-0.767066650390625	-2.327841064453125	0		1.5046591796875	-0.39784967041015623	0		3.004912109375	0.06626770782470703	0		4.4801171875	0.23877473449707032	0		5.6090439453125	0.14329940795898438	0		-0.444246337890625	5.86780078125	0		
0.051207141876220705	0.005125319957733155	0		0.4540114440917969	-2.348109375	0		-1.15609521484375	-0.002223534107208252	0		-0.803736083984375	-2.322590576171875	0		1.505595703125	-0.39381195068359376	0		3.03985693359375	0.07601158142089844	0		4.49172412109375	0.2311985168457031	0		5.6026337890625	0.1640241394042969	0		-0.4485831298828125	5.86753271484375	0		
0.048220497131347656	0.00496055793762207	0		0.47535391235351565	-2.3536083984375	0		-1.1009873046875	0.0024149279594421385	0		-0.7523854370117188	-2.3278203125	0		1.53569189453125	-0.39327764892578126	0		3.00881103515625	0.07385111999511719	0		4.47995263671875	0.24697123718261718	0		5.5963642578125	0.18288584899902344	0		-0.320255615234375	5.88704150390625	0		
0.03629738235473633	-0.0050445799827575685	0		0.4709486999511719	-2.355662109375	0		-1.11185986328125	-0.004794878959655762	0		-0.7869918212890625	-2.341570068359375	0		1.5258670654296875	-0.40107391357421873	0		3.00604296875	0.07417667388916016	0		4.47793798828125	0.2345218505859375	0		5.59563720703125	0.1546879119873047	0		-0.3381376342773437	5.87706005859375	0		
-0.013140422821044922	5.834320187568664E-4	0		0.46674111938476565	-2.357715576171875	0		-1.10157177734375	-0.01633389663696289	0		-0.7681382446289062	-2.34019482421875	0		1.5203330078125	-0.4049522399902344	0		3.00838671875	0.06738797760009765	0		4.475375	0.23503614807128906	0		5.58968994140625	0.17331243896484375	0		-0.3425309143066406	5.87786767578125	0		
-0.018514503479003908	-0.0035192959308624266	0		0.43881072998046877	-2.354374267578125	0		-1.178851318359375	-0.014401009559631348	0		-0.7982849731445313	-2.349989013671875	0		1.518080322265625	-0.4048934326171875	0		3.007217041015625	0.07663427734375	0		4.47613232421875	0.24145220947265625	0		5.59930322265625	0.149688232421875	0		-0.46284835815429687	5.86659912109375	0		
0.03547835159301758	0.0014173250198364258	0		0.4649906921386719	-2.3559208984375	0		-1.0978607177734374	-0.010052863121032716	0		-0.80008544921875	-2.350234619140625	0		1.516033447265625	-0.404845703125	0		2.9990771484375	0.07496904754638672	0		4.47400341796875	0.24187467956542968	0		5.60007666015625	0.16785694885253907	0		-0.34750933837890624	5.87646484375	0		
-0.01234812068939209	0.006029191970825195	0		0.463367919921875	-2.356005126953125	0		-1.1038050537109374	-0.013253989219665528	0		-0.7728588256835938	-2.35993603515625	0		1.50805419921875	-0.4127091064453125	0		3.012169189453125	0.07493646240234375	0		4.46898095703125	0.23630697631835937	0		5.59232861328125	0.17070936584472657	0		-0.3510750427246094	5.87730224609375	0		
0.025761251449584962	-0.005748793125152588	0		0.5107942504882812	-2.363877685546875	0		-1.1223958740234374	-0.006232264995574951	0		-0.7804087524414063	-2.366054443359375	0		1.4874903564453126	-0.40637454223632813	0		3.01045361328125	0.07512691497802734	0		4.467248046875	0.23665386962890625	0		5.59530859375	0.15749407958984374	0		-0.35341351318359376	5.87713134765625	0		
-0.05072650909423828	-0.0026725640296936036	0		0.45655294799804685	-2.360106201171875	0		-1.12392529296875	-0.006471481800079346	0		-0.7878001098632812	-2.372162841796875	0		1.498031005859375	-0.40454815673828126	0		2.984951416015625	0.07768094635009766	0		4.46569482421875	0.23696759033203124	0		5.587107421875	0.16022015380859375	0		-0.35552490234375	5.87696826171875	0		
0.022867719650268556	-0.005995928764343262	0		0.45540240478515626	-2.3601884765625	0		-1.11246630859375	-0.01790291404724121	0		-0.7801260375976562	-2.3835	0		1.481609375	-0.4102961730957031	0		2.9974345703125	0.06860601806640625	0		4.47227587890625	0.2351217041015625	0		5.59029736328125	0.14167393493652344	0		-0.341297119140625	5.88455615234375	0		
-0.018161312103271484	0.005520055770874024	0		0.44338909912109375	-2.360095458984375	0		-1.1764755859375	-0.0051158261299133305	0		-0.768235595703125	-2.389888427734375	0		1.4955274658203126	-0.40453152465820313	0		3.010408447265625	0.08051050567626954	0		4.4602705078125	0.24954371643066406	0		5.5923759765625	0.15424903869628906	0		-0.476306640625	5.8655205078125	0		
0.0297546329498291	0.0036326680183410643	0		0.4575622863769531	-2.356412841796875	0		-1.1235120849609375	-0.004167740821838379	0		-0.7860877685546875	-2.387789794921875	0		1.484307373046875	-0.4163750305175781	0		2.98437548828125	0.08301348114013672	0		4.46509521484375	0.24366514587402344	0		5.587494140625	0.1774041290283203	0		-0.4797682800292969	5.867404296875	0		
-0.04612799835205078	0.006706553936004639	0		0.4547608032226563	-2.3584580078125	0		-1.1284815673828126	-0.007283932209014893	0		-0.7939808959960938	-2.395836181640625	0		1.4772862548828125	-0.4242900390625	0		2.98036865234375	0.07814823913574219	0		4.4610625	0.23789605712890624	0		5.57972216796875	0.17983702087402345	0		-0.3619136962890625	5.87639453125	0		
0.018883224487304687	-0.006428894996643067	0		0.45207034301757815	-2.36050146484375	0		-1.1292735595703125	-0.007448287010192871	0		-0.7898580322265625	-2.410058349609375	0		1.4703931884765624	-0.4322125244140625	0		2.9803837890625	0.06620137023925782	0		4.46025634765625	0.23804685974121093	0		5.583330078125	0.16273643493652343	0		-0.36303741455078126	5.8762734375	0		
